<?xml version="1.0" encoding="utf-8"?>
<!-- Generator: Adobe Illustrator 19.0.0, SVG Export Plug-In . SVG Version: 6.00 Build 0)  -->
<svg version="1.1" id="Camada_1" xmlns="http://www.w3.org/2000/svg" xmlns:xlink="http://www.w3.org/1999/xlink" x="0px" y="0px"
	 viewBox="0 0 489.6 119" style="enable-background:new 0 0 489.6 119;" xml:space="preserve">
<style type="text/css">
	.st0{fill:#FFCC3A;}
	.st1{fill:#FF8A00;}
	.st2{opacity:0.3;fill:#FFFFFF;}
	.st3{fill:#9FCC3E;}
	.st4{fill:#B1D64C;}
</style>
<g id="XMLID_169_">
	<g id="XMLID_2_">
		<g id="XMLID_34_">
			<g id="XMLID_35_">
				<path id="XMLID_36_" class="st0" d="M69.2,117c-25.9,0-47-21.1-47-47s21.1-47,47-47s47,21.1,47,47S95.1,117,69.2,117z
					 M69.2,27.1c-23.6,0-42.9,19.2-42.9,42.9c0,23.6,19.2,42.9,42.9,42.9c23.6,0,42.9-19.2,42.9-42.9
					C112.1,46.4,92.8,27.1,69.2,27.1z"/>
			</g>
		</g>
		<g id="XMLID_27_">
			<g id="XMLID_31_">
				<path id="XMLID_12_" class="st1" d="M135.4,20.6c0-11.1-7.7-20.1-13.7-20.1c-5.4,0-13.7,9-13.7,20.1c0,9.8,4.2,17.9,10.8,19.7
					c-0.1,6.5-0.3,43.2-1.5,52.9c-1.4,11.4-4.8,24.7,4.4,24.7c9.2,0,5.8-13.2,4.4-24.7c-1.2-9.7-1.4-46.3-1.5-52.9
					C131.2,38.5,135.4,30.4,135.4,20.6z"/>
				<path id="XMLID_11_" class="st2" d="M121.6,117.9c0,0,0.1,0,0.1,0l0-117.4c0,0-0.1,0-0.1,0c-5.4,0-13.7,9-13.7,20.1
					c0,9.8,4.2,17.9,10.8,19.7c-0.1,6.5-0.3,43.2-1.5,52.9C115.8,104.7,112.4,117.9,121.6,117.9z"/>
			</g>
			<g id="XMLID_28_">
				<path id="XMLID_10_" class="st1" d="M22,4.3h-0.3c-0.7,0-1.3,0.6-1.3,1.3V32l-2.8,0l0-26.4c0-0.7-0.6-1.3-1.3-1.3l-0.3,0
					c-0.7,0-1.3,0.6-1.3,1.3V32l-2.7,0l0-26.4c0-0.7-0.6-1.3-1.3-1.3l-0.3,0c-0.7,0-1.3,0.6-1.3,1.3V32H6V5.6c0-0.7-0.6-1.3-1.3-1.3
					H4.4C3.6,4.3,3,4.9,3,5.6V32v7.4c0,4.5,3.1,8.2,7.3,9.2l0,0c0,0-0.1,29.1-1.5,40.6c-1.4,11.4-4.8,29.4,4.4,29.4
					c9.2,0,5.8-17.9,4.4-29.4c-1.4-11.4-1.5-40.6-1.5-40.6l0,0c4.2-1,7.3-4.7,7.3-9.2l0-7.4l0-26.4C23.4,4.9,22.8,4.3,22,4.3z"/>
				<path id="XMLID_9_" class="st2" d="M11.8,32l0-26.4c0-0.7-0.6-1.3-1.3-1.3l-0.3,0c-0.7,0-1.3,0.6-1.3,1.3V32H6V5.6
					c0-0.7-0.6-1.3-1.3-1.3H4.4C3.6,4.3,3,4.9,3,5.6V32v7.4c0,4.5,3.1,8.2,7.3,9.2l0,0c0,0-0.1,29.1-1.5,40.6
					c-1.4,11.4-4.8,29.4,4.4,29.4L13.1,32H11.8z"/>
			</g>
		</g>
		<g id="XMLID_18_">
			<g id="XMLID_23_">
				<path id="XMLID_8_" class="st3" d="M68.8,88.4c0,0-7.1-34.1,32.7-36.5C101.5,51.9,106.5,86.6,68.8,88.4z"/>
				<path id="XMLID_7_" class="st4" d="M97.9,54.1c-3.4,2.5-6.6,5.3-9.6,8.3c0-0.5,0-1.1,0.1-1.5c0.1-1.1,0.3-2.3,0.6-3.4
					c0.3-1.5-1.9-2-2.3-0.6c-0.4,1.7-1.4,5.5-0.4,7.5c-1.9,2-3.7,4.1-5.5,6.2c-0.1-1.2-0.2-2.4-0.2-3.6c0-1.6,0-3.2,0-4.7
					c0-1.5-2.3-1.5-2.3,0c-0.1,2.1,0,4.2,0.1,6.3c0,1.1,0,3.1,0.5,4.4c-1.6,2.1-3.2,4.3-4.8,6.4c-0.4-2.5,0-5.5,0.1-7.8
					c0.1-1.5-2.2-1.4-2.3,0c-0.1,1.8-0.1,3.6-0.1,5.3c0,1.4-0.1,3.5,0.6,5c-0.8,1.1-1.5,2.2-2.2,3.3c-0.8,1.3,1.2,2.4,2,1.1
					c0.6-1,1.3-2,2-2.9c1.2,0.3,2.8,0,3.8-0.2c3.4-0.6,6.7-1.5,9.9-2.6c1.4-0.5,0.7-2.8-0.7-2.2c-1.2,0.4-8.8,3.1-11.6,3
					c1.6-2.3,3.3-4.6,5-6.9c1.8,0.4,4.3-0.3,5.9-0.4c2-0.3,4-0.6,6.1-0.9c1.5-0.2,0.8-2.5-0.7-2.2c-3.1,0.5-6.3,1.2-9.4,1.2
					c1.8-2.3,3.7-4.5,5.7-6.6c1.5,0.2,3.3-0.3,4.6-0.5c1.6-0.3,3.1-0.7,4.7-1.1c1.5-0.4,0.8-2.6-0.7-2.2c-2,0.5-4.1,1-6.2,1.3
					c2.7-2.6,5.5-5,8.4-7.2C100.4,55.2,99.1,53.3,97.9,54.1z"/>
				<path id="XMLID_6_" class="st2" d="M101.5,51.9c-39.9,2.4-32.7,36.5-32.7,36.5c0.3,0,0.6,0,0.9-0.1l31.9-35.7
					C101.6,52.2,101.5,51.9,101.5,51.9z"/>
			</g>
			<g id="XMLID_19_">
				<path id="XMLID_5_" class="st3" d="M69.6,88.4c0,0,7.1-34.1-32.7-36.5C36.9,51.9,31.9,86.6,69.6,88.4z"/>
				<path id="XMLID_4_" class="st4" d="M40.5,54.1c3.4,2.5,6.6,5.3,9.6,8.3c0-0.5,0-1.1-0.1-1.5c-0.1-1.1-0.3-2.3-0.6-3.4
					c-0.3-1.5,1.9-2,2.3-0.6c0.4,1.7,1.4,5.5,0.4,7.5c1.9,2,3.7,4.1,5.5,6.2c0.1-1.2,0.2-2.4,0.2-3.6c0-1.6,0-3.2,0-4.7
					c0-1.5,2.3-1.5,2.3,0c0.1,2.1,0,4.2-0.1,6.3c0,1.1,0,3.1-0.5,4.4c1.6,2.1,3.2,4.3,4.8,6.4c0.4-2.5,0-5.5-0.1-7.8
					c-0.1-1.5,2.2-1.4,2.3,0c0.1,1.8,0.1,3.6,0.1,5.3c0,1.4,0.1,3.5-0.6,5c0.8,1.1,1.5,2.2,2.2,3.3c0.8,1.3-1.2,2.4-2,1.1
					c-0.6-1-1.3-2-2-2.9c-1.2,0.3-2.8,0-3.8-0.2c-3.4-0.6-6.7-1.5-9.9-2.6c-1.4-0.5-0.7-2.8,0.7-2.2c1.2,0.4,8.8,3.1,11.6,3
					c-1.6-2.3-3.3-4.6-5-6.9c-1.8,0.4-4.3-0.3-5.9-0.4c-2-0.3-4-0.6-6.1-0.9c-1.5-0.2-0.8-2.5,0.7-2.2c3.1,0.5,6.3,1.2,9.4,1.2
					c-1.8-2.3-3.7-4.5-5.7-6.6c-1.5,0.2-3.3-0.3-4.6-0.5c-1.6-0.3-3.1-0.7-4.7-1.1c-1.5-0.4-0.8-2.6,0.7-2.2c2,0.5,4.1,1,6.2,1.3
					c-2.7-2.6-5.5-5-8.4-7.2C38,55.2,39.3,53.3,40.5,54.1z"/>
				<path id="XMLID_3_" class="st2" d="M36.9,51.9c39.9,2.4,32.7,36.5,32.7,36.5c-0.3,0-0.6,0-0.9-0.1L36.8,52.6
					C36.8,52.2,36.9,51.9,36.9,51.9z"/>
			</g>
		</g>
	</g>
	<g id="XMLID_1_">
		<path id="XMLID_15_" class="st3" d="M184.4,74.6c0.9-2.7,1.9-5.9,3-9.6c1-3.7,2.1-7.6,3.3-11.6c1.1-4,2.2-8.1,3.3-12.1
			c1.1-4,2.2-7.7,3.3-11.1c0.3-0.9,0.6-1.9,0.8-2.9c0.2-1,0.5-1.9,0.9-2.7c0.4-0.8,0.9-1.3,1.5-1.7c0.7-0.4,1.6-0.4,2.8-0.1
			c0.7,0.4,1.2,1,1.3,1.7c0.2,0.7,0.2,1.5,0.1,2.2c-0.1,0.8-0.3,1.5-0.6,2.3c-0.3,0.8-0.5,1.4-0.7,1.9c-1.5,4.7-2.8,9.2-4.1,13.7
			c-1.2,4.5-2.4,8.9-3.6,13.3c-1.2,4.4-2.4,8.8-3.6,13.2c-1.2,4.4-2.6,8.9-4.2,13.4c-0.5,1.1-1,2.3-1.4,3.7c-0.5,1.3-1,2.6-1.6,3.9
			c-0.6,1.2-1.3,2.3-2,3.3c-0.8,0.9-1.6,1.6-2.6,2c-0.4,0.3-1.1,0.5-2,0.6c-0.9,0.1-1.9,0.2-3,0.2c-1.1,0-2.1-0.1-3.2-0.2
			c-1-0.1-1.9-0.3-2.4-0.5c-1-0.4-1.9-1-2.7-2c-0.8-1-1.5-2.1-2.1-3.4s-1.2-2.7-1.6-4.1c-0.4-1.5-0.8-2.9-1.2-4.3
			c-0.8-3.1-1.6-6.2-2.2-9.1c-0.6-2.9-1.2-5.8-1.8-8.7c-0.6-2.9-1.2-5.9-1.9-8.9c-0.7-3-1.4-6.2-2.3-9.6c-0.3-1-0.7-2.5-1.1-4.4
			c-0.4-1.9-0.9-4-1.2-6.1c-0.4-2.1-0.7-4.3-0.8-6.3c-0.1-2.1,0-3.8,0.4-5.2c0.3-1,0.8-1.8,1.5-2.3c0.7-0.5,1.5-0.9,2.5-1.1
			c0.9-0.2,2-0.3,3.1-0.3c1.1,0,2.2,0,3.3,0c0.4,0,1.2,0,2.6-0.1c1.4-0.1,2.8,0,4.4,0.1c1.5,0.1,3,0.5,4.3,1.1
			c1.3,0.6,2.1,1.5,2.4,2.8c0.7,3.5,1.4,7.3,2,11.3c0.7,4,1.3,8.2,1.9,12.4c0.6,4.3,1.1,8.5,1.6,12.8c0.5,4.3,1,8.3,1.4,12.2
			c0.1,1.1,0.3,1.8,0.5,2.1c0.2,0.3,0.5,0.4,0.8,0.2c0.3-0.1,0.5-0.4,0.7-0.8C184.2,75.2,184.3,74.9,184.4,74.6z"/>
		<path id="XMLID_17_" class="st3" d="M232.1,29.2c0,2,0,4.3,0,7c0,2.7,0,5.5,0,8.5c0,2.9,0,5.9,0.1,8.8c0.1,2.9,0.2,5.7,0.4,8.1
			h8.6c1.6,0,2.9,0,3.8,0.1c0.9,0,1.7,0.2,2.2,0.5c0.5,0.3,0.9,0.7,1.1,1.3c0.2,0.6,0.3,1.4,0.3,2.5s-0.6,1.8-1.8,2.2
			c-1.2,0.4-2.6,0.6-4.4,0.7c-1.7,0-3.5,0-5.4,0c-1.9,0-3.5,0.1-4.8,0.4v20.3c0.8,0.1,1.9,0.2,3.3,0.2c1.3,0,2.8-0.1,4.3-0.1
			c1.5,0,3.1,0,4.6,0.1c1.5,0.1,2.9,0.3,4.2,0.5c1.2,0.3,2.3,0.7,3.1,1.3c0.8,0.6,1.2,1.4,1.3,2.5c0.1,1.3-0.3,2.3-1,2.9
			c-0.7,0.6-1.8,1-3,1.3c-1.3,0.2-2.7,0.3-4.4,0.3c-1.7,0-3.4-0.1-5.2-0.1c-2,0-4.1,0-6.3,0.1c-2.2,0-4.5,0-6.7,0
			c-2.2,0-4.4-0.2-6.4-0.4c-2-0.2-3.9-0.6-5.5-1.1c-1.6-0.5-2.9-1.3-3.8-2.2c-1-0.9-1.5-2.1-1.5-3.6c-0.2-5-0.3-9.7-0.5-14.1
			c-0.1-4.4-0.3-8.8-0.4-13c-0.1-4.3-0.2-8.6-0.3-13c-0.1-4.4-0.1-9-0.1-14c0-1.1,0-2.2,0-3.4c0-1.2,0-2.3,0.1-3.4
			c0.1-1.1,0.1-2.1,0.3-3c0.1-0.9,0.3-1.7,0.5-2.2c0.9-1.6,2.6-2.6,4.9-2.9c2.3-0.3,4.9-0.5,7.9-0.4c1.1,0,2.6,0,4.4,0.1
			c1.8,0,3.7,0.1,5.7,0.1c2,0,3.9,0.1,5.7,0.1c1.8,0,3.3,0.1,4.4,0.2c1.3,0.1,2.6,0.1,3.9,0.1c1.3,0,2.4,0.1,3.4,0.3
			s1.7,0.7,2.1,1.4c0.4,0.7,0.5,1.8,0.1,3.3c-0.2,0.7-0.7,1.3-1.5,1.6c-0.8,0.3-1.8,0.5-2.8,0.6c-1,0.1-2.1,0.1-3.2,0
			c-1.1-0.1-2-0.1-2.7-0.1c-1.4,0-2.4,0-3.2,0c-0.8,0-1.4,0-2,0.1c-0.6,0-1.1,0.1-1.6,0.1S232.9,29.2,232.1,29.2z"/>
		<path id="XMLID_21_" class="st3" d="M292.8,70.4c-0.8,0.1-1.4-0.1-1.8-0.8c-0.4-0.7-0.7-1.4-0.7-2.2c0-0.5,0.1-1.1,0.4-1.9
			c0.3-0.7,0.8-1.1,1.4-1c3.7-0.2,6.6-0.2,8.6,0.2c2.1,0.3,3.6,1,4.7,2.1c1,1.1,1.7,2.6,2,4.6c0.3,2,0.5,4.6,0.6,7.7
			c0.1,2,0.1,3.8-0.1,5.4c-0.2,1.6-0.7,3.5-1.6,5.8c-0.6,1.6-1.6,3-3,4.2c-1.4,1.2-3,2.2-4.9,3c-1.9,0.8-4,1.4-6.2,1.7
			c-2.3,0.4-4.5,0.5-6.8,0.5c-2.3,0-4.4-0.3-6.5-0.8c-2.1-0.5-4-1.1-5.6-1.9c-3-1.5-5.7-3.5-8.1-6c-2.4-2.5-4.5-5.3-6.2-8.6
			c-1.7-3.2-3.1-6.8-4.1-10.8c-1-4-1.5-8.2-1.5-12.6c0-7.5,1.1-13.9,3.3-19.2c2.2-5.3,5.1-9.4,8.9-12.4c3.7-3,8.1-4.9,13.1-5.7
			c5-0.8,10.3-0.5,16,1c0.7,0.2,1.5,0.6,2.5,1.1c0.9,0.5,1.9,1.2,2.9,1.9c1,0.7,1.9,1.5,2.8,2.2c0.9,0.7,1.6,1.4,2.1,2
			c0.1,0.1,0.3,0.4,0.7,0.8c0.3,0.4,0.6,0.8,0.8,1.4c0.2,0.5,0.4,1.1,0.4,1.8c0,0.7-0.2,1.3-0.6,2c-0.1,0.5-0.4,0.9-0.7,1
			c-0.4,0.2-0.8,0.2-1.2,0.2c-0.4-0.1-0.9-0.2-1.3-0.5c-0.4-0.3-0.7-0.6-1-0.9c-0.7-1-1.5-1.9-2.4-2.6c-0.9-0.7-1.9-1.3-2.9-1.7
			c-1-0.4-2-0.8-3-1c-1-0.3-1.9-0.4-2.7-0.4c-3.6-0.1-6.4,0.5-8.5,2.1c-2.1,1.5-3.2,4-3.2,7.3c-0.2,1.2-0.4,2.9-0.4,5.2
			c0,2.3,0,4.7,0.1,7.4c0.1,2.6,0.2,5.2,0.4,7.8c0.1,2.6,0.2,4.7,0.2,6.3c0,2.3,0.1,4.8,0.2,7.6c0.1,2.8,0.4,5.6,0.8,8.1
			c0.4,2.6,1,4.8,1.7,6.7c0.8,1.9,1.9,2.9,3.3,3.1c2.5,0.4,5,0.3,7.5-0.2c2.5-0.5,4.9-2,7-4.5c0.9-1.2,1.5-2.4,1.6-3.7
			c0.1-1.3,0.2-2.9,0.1-4.8c-0.1-2.5-0.4-4.2-0.8-5.2c-0.4-1-1.1-1.7-1.8-2c-0.8-0.3-1.7-0.4-2.8-0.3
			C295.4,70.8,294.2,70.7,292.8,70.4z"/>
		<path id="XMLID_24_" class="st3" d="M335.5,19.4c4.6-0.4,8.7-0.2,12.1,0.6c3.4,0.8,6.4,2.1,9,4.1c2.5,2,4.6,4.6,6.3,7.8
			c1.7,3.2,3.1,7.2,4.1,11.8c0.4,2,0.7,3.8,1,5.4c0.2,1.6,0.4,3.4,0.4,5.4c0.1,2,0,4.2,0,6.7c-0.1,2.5-0.3,5.6-0.5,9.1
			c-0.5,4.6-1.7,8.8-3.6,12.7c-1.9,3.9-4.3,7.2-7.3,9.9c-2.9,2.7-6.3,4.6-10,5.8c-3.7,1.2-7.6,1.4-11.6,0.5c-4-0.8-7.6-2.6-11-5.4
			c-3.3-2.8-6.1-6.4-8.5-10.9c-1.4-2.5-2.5-5.4-3.3-8.8c-0.8-3.4-1.3-7-1.5-10.7c-0.2-3.7-0.1-7.4,0.2-11.1c0.4-3.7,1-7,1.9-10.1
			c0.9-2.8,2.2-5.6,3.7-8.2c1.5-2.6,3.2-5,5.2-7.1c1.9-2.1,4-3.8,6.2-5.2C330.8,20.5,333.1,19.7,335.5,19.4z M361,43.7
			c-0.4-1.8-1.2-3.9-2.2-6.2c-1.1-2.3-2.2-4.3-3.4-6c-1-1.1-2.3-2.1-4.1-2.9c-1.8-0.9-3.6-1.5-5.4-1.8c-1.8-0.3-3.4-0.3-4.9,0.1
			c-1.4,0.4-2.3,1.2-2.5,2.6c-0.2,1.9-0.4,4.3-0.4,7.1s0,5.9,0.1,9.2c0.1,3.3,0.2,6.6,0.3,10c0.1,3.4,0.1,6.7,0,9.7
			c-0.1,1.7-0.1,3.7-0.2,6.1c-0.1,2.4,0,4.7,0.3,6.9c0.2,2.2,0.7,4.2,1.3,6c0.7,1.7,1.7,2.8,3,3.3c2.7,0.9,5.2,1,7.5,0.1
			c2.3-0.9,4.2-2.3,5.9-4.4c1.7-2.1,3-4.7,4.1-7.8c1.1-3.1,1.8-6.4,2.2-10c0.4-3.6,0.4-7.2,0.2-11C362.7,50.7,362,47.1,361,43.7z"/>
		<path id="XMLID_29_" class="st3" d="M396.1,19.4c4.6-0.4,8.7-0.2,12.1,0.6c3.4,0.8,6.4,2.1,9,4.1c2.5,2,4.6,4.6,6.3,7.8
			c1.7,3.2,3.1,7.2,4.1,11.8c0.4,2,0.7,3.8,1,5.4c0.2,1.6,0.4,3.4,0.4,5.4c0.1,2,0,4.2,0,6.7c-0.1,2.5-0.3,5.6-0.5,9.1
			c-0.5,4.6-1.7,8.8-3.6,12.7c-1.9,3.9-4.3,7.2-7.3,9.9c-2.9,2.7-6.3,4.6-10,5.8c-3.7,1.2-7.6,1.4-11.6,0.5c-4-0.8-7.6-2.6-11-5.4
			c-3.3-2.8-6.1-6.4-8.5-10.9c-1.4-2.5-2.5-5.4-3.3-8.8c-0.8-3.4-1.3-7-1.5-10.7c-0.2-3.7-0.1-7.4,0.2-11.1c0.4-3.7,1-7,1.9-10.1
			c0.9-2.8,2.2-5.6,3.7-8.2c1.5-2.6,3.2-5,5.2-7.1c1.9-2.1,4-3.8,6.2-5.2C391.3,20.5,393.6,19.7,396.1,19.4z M421.5,43.7
			c-0.4-1.8-1.2-3.9-2.2-6.2c-1.1-2.3-2.2-4.3-3.4-6c-1-1.1-2.3-2.1-4.1-2.9c-1.8-0.9-3.6-1.5-5.4-1.8c-1.8-0.3-3.4-0.3-4.9,0.1
			c-1.4,0.4-2.3,1.2-2.5,2.6c-0.2,1.9-0.4,4.3-0.4,7.1s0,5.9,0.1,9.2c0.1,3.3,0.2,6.6,0.3,10c0.1,3.4,0.1,6.7,0,9.7
			c-0.1,1.7-0.1,3.7-0.2,6.1c-0.1,2.4,0,4.7,0.3,6.9c0.2,2.2,0.7,4.2,1.3,6c0.7,1.7,1.7,2.8,3,3.3c2.7,0.9,5.2,1,7.5,0.1
			c2.3-0.9,4.2-2.3,5.9-4.4c1.7-2.1,3-4.7,4.1-7.8c1.1-3.1,1.8-6.4,2.2-10c0.4-3.6,0.4-7.2,0.2-11C423.2,50.7,422.5,47.1,421.5,43.7
			z"/>
		<path id="XMLID_33_" class="st3" d="M434.7,91.9c-0.5-5-0.8-9.5-1.1-13.3c-0.2-3.9-0.4-7.7-0.5-11.5c-0.1-3.8-0.2-7.9-0.2-12.1
			c0-4.3,0-9.3,0-15.1c0-1.2,0-2.5-0.1-4c-0.1-1.5-0.1-3-0.1-4.5c0-1.5,0.1-2.8,0.2-4c0.1-1.2,0.5-2.1,0.9-2.7c0.5-0.6,1.2-1,2-1.3
			c0.8-0.3,1.7-0.5,2.6-0.7c0.9-0.1,1.9-0.2,2.9-0.3c1,0,2-0.1,3-0.1c3.6-0.3,7-0.4,10.2-0.2c3.2,0.1,6.2,0.5,9,1.1
			c2.7,0.6,5.2,1.4,7.3,2.4c2.1,1,3.8,2.3,4.9,3.7c2.9,3.5,5.2,7.3,7,11.3c1.8,4,3,8.7,3.4,13.9c0.5,3.5,0.6,7.4,0.5,11.8
			c-0.1,4.4-0.9,9-2.4,13.7c-0.7,2.3-1.7,4.4-3.1,6.2c-1.3,1.8-2.8,3.3-4.5,4.6c-1.7,1.3-3.4,2.4-5.3,3.3c-1.8,0.9-3.6,1.7-5.3,2.2
			c-2.4,0.6-5,0.9-7.7,1c-2.8,0.1-5.6,0.1-8.5,0.1c-1.2,0-2.6,0-4.2-0.1c-1.6-0.1-3.2-0.3-4.8-0.6c-1.5-0.3-2.9-0.9-4.1-1.6
			C435.6,94.4,434.9,93.3,434.7,91.9z M474.7,83.7c2-2.3,3.5-5.4,4.5-9.2c1-3.8,1.4-7.8,1.4-12c-0.1-4.2-0.6-8.3-1.6-12.4
			c-1-4.1-2.4-7.7-4.3-10.8s-4.2-5.4-6.9-6.9c-2.7-1.5-5.8-1.8-9.4-0.9c-0.2,0.3-0.4,1-0.5,2c-0.1,1.1-0.2,2.2-0.3,3.5
			c-0.1,1.3-0.1,2.6-0.1,3.9c0,1.3,0,2.4,0,3.3c0,8.2,0.1,16.1,0.4,23.7c0.3,7.6,0.4,14.3,0.4,20.2c1.7,0.6,3.3,0.8,4.8,0.7
			c1.5-0.1,3-0.4,4.4-0.9c1.4-0.5,2.6-1.1,3.8-1.9C472.6,85.4,473.7,84.6,474.7,83.7z"/>
	</g>
</g>
</svg>
