<?xml version="1.0" encoding="utf-8"?>
<!-- Generator: Adobe Illustrator 19.0.0, SVG Export Plug-In . SVG Version: 6.00 Build 0)  -->
<svg version="1.1" id="Layer_1" xmlns="http://www.w3.org/2000/svg" xmlns:xlink="http://www.w3.org/1999/xlink" x="0px" y="0px"
	 viewBox="-823 950 400 150" style="enable-background:new -823 950 400 150;" xml:space="preserve">
<style type="text/css">
	.st0{fill:#B0B7B0;}
	.st1{font-family:'OpenSans';}
	.st2{font-size:15px;}
</style>
<g>
	<path class="st0" d="M-629,1010.9c1,0,1.8-0.8,1.8-1.8s-0.8-1.8-1.8-1.8c-1,0-1.8,0.8-1.8,1.8C-630.8,1010.1-630,1010.9-629,1010.9
		z M-616.7,1010.9c1,0,1.8-0.8,1.8-1.8s-0.8-1.8-1.8-1.8s-1.8,0.8-1.8,1.8C-618.5,1010.1-617.7,1010.9-616.7,1010.9z M-623,993.4
		c-11.5,0-20.9,9.4-20.9,20.9c0,11.5,9.4,20.9,20.9,20.9c11.5,0,20.9-9.4,20.9-20.9C-602.1,1002.7-611.5,993.4-623,993.4z
		 M-623,1033.7c-10.7,0-19.5-8.7-19.5-19.5c0-10.7,8.7-19.5,19.5-19.5c10.7,0,19.5,8.7,19.5,19.5
		C-603.5,1025-612.3,1033.7-623,1033.7z M-611.8,1017.1c-0.4,0-0.7,0.3-0.7,0.7c0,4.1-4.9,9.1-10.6,9.1c-5.7,0-10.6-5-10.6-9.1
		c0-0.4-0.3-0.7-0.7-0.7c-0.4,0-0.7,0.3-0.7,0.7c0,4.8,5.4,10.5,12,10.5c6.7,0,12-5.8,12-10.5
		C-611.1,1017.4-611.4,1017.1-611.8,1017.1z"/>
</g>
<g>
	<g>
		<path class="st0" d="M-594.9,990h-11.4c0-5.5-4.4-9.9-9.9-9.9h-13.7c-5.5,0-9.9,4.4-9.9,9.9h-11.4c-5.5,0-9.9,4.4-9.9,9.9v28.9
			c0,5.5,4.4,9.9,9.9,9.9h56.2c5.5,0,9.9-4.4,9.9-9.9v-28.9C-585,994.4-589.4,990-594.9,990z M-623,1031.8
			c-9.6,0-17.5-7.8-17.5-17.5c0-9.6,7.8-17.5,17.5-17.5s17.5,7.8,17.5,17.5C-605.5,1023.9-613.4,1031.8-623,1031.8z"/>
	</g>
	<text transform="matrix(1 0 0 1 -713.5235 1065.8389)" class="st0 st1 st2">Clique para adicionar foto</text>
</g>
</svg>
