<?xml version="1.0" encoding="utf-8"?>
<!-- Generator: Adobe Illustrator 19.0.0, SVG Export Plug-In . SVG Version: 6.00 Build 0)  -->
<svg version="1.1" id="Layer_1" xmlns="http://www.w3.org/2000/svg" xmlns:xlink="http://www.w3.org/1999/xlink" x="0px" y="0px"
	 viewBox="-823 949.7 400 150" style="enable-background:new -823 949.7 400 150;" xml:space="preserve">
<style type="text/css">
	.st0{fill:#B0B7B0;}
	.st1{font-family:'OpenSans';}
	.st2{font-size:15px;}
</style>
<g>
	<g>
		<path class="st0" d="M-594.9,989.6h-11.4c0-5.5-4.4-9.9-9.9-9.9h-13.7c-5.5,0-9.9,4.4-9.9,9.9h-11.4c-5.5,0-9.9,4.4-9.9,9.9v28.9
			c0,5.5,4.4,9.9,9.9,9.9h56.2c5.5,0,9.9-4.4,9.9-9.9v-28.9C-585,994-589.4,989.6-594.9,989.6z M-623,1031.4
			c-9.6,0-17.5-7.8-17.5-17.5c0-9.6,7.8-17.5,17.5-17.5s17.5,7.8,17.5,17.5C-605.5,1023.5-613.4,1031.4-623,1031.4z"/>
		<g>
			<path class="st0" d="M-625.5,1008.9c-0.3,0.3-0.6,0.7-0.7,1c-0.1,0.3-0.2,0.7-0.1,1c0.1,0.3,0.3,0.6,0.5,0.8
				c0.1,0.1,0.3,0.3,0.4,0.4c0.1,0.1,0.2,0.1,0.2,0.2l0.1,0.1l0.1,0.1c0.1,0.1,0.2,0.2,0.3,0.2c0.1,0.1,0.2,0.2,0.3,0.3
				c0.2,0.2,0.3,0.4,0.5,0.6c0.3,0.4,0.4,0.9,0.3,1.4c-0.1,0.5-0.3,0.9-0.7,1.3c-0.2,0.2-0.4,0.3-0.6,0.5c-0.2,0.1-0.5,0.2-0.7,0.3
				c0.3-0.4,0.5-0.7,0.6-1.1c0.1-0.3,0.2-0.7,0.1-1c-0.1-0.3-0.2-0.6-0.4-0.9s-0.5-0.5-0.8-0.8l-0.1-0.1c-0.1,0-0.1-0.1-0.2-0.1
				c-0.1-0.1-0.2-0.2-0.3-0.3c-0.2-0.2-0.4-0.4-0.5-0.6c-0.1-0.2-0.3-0.4-0.4-0.7c-0.1-0.2-0.1-0.5-0.1-0.7s0.1-0.5,0.2-0.7
				s0.3-0.4,0.5-0.6s0.4-0.3,0.6-0.4C-626,1009-625.7,1008.9-625.5,1008.9z"/>
			<path class="st0" d="M-621.8,1002.9c-0.5,0.5-0.8,1.1-1,1.6s-0.2,1-0.1,1.5c0.1,0.5,0.4,0.9,0.8,1.3c0.2,0.2,0.4,0.4,0.6,0.6
				c0.1,0.1,0.2,0.2,0.4,0.3l0.2,0.1l0.2,0.2c0.2,0.1,0.3,0.2,0.5,0.4c0.1,0.1,0.3,0.3,0.4,0.4c0.3,0.3,0.5,0.6,0.7,0.9
				c0.4,0.7,0.6,1.4,0.5,2.2c-0.1,0.7-0.5,1.4-1.1,2c-0.3,0.3-0.6,0.5-1,0.7c-0.3,0.2-0.7,0.4-1.1,0.5c0.4-0.5,0.8-1.1,1-1.6
				s0.3-1,0.2-1.5c-0.1-0.5-0.3-0.9-0.7-1.3c-0.3-0.4-0.8-0.8-1.3-1.2l-0.2-0.2c-0.1-0.1-0.2-0.1-0.2-0.2c-0.1-0.1-0.3-0.3-0.4-0.4
				c-0.3-0.3-0.5-0.6-0.8-0.9c-0.2-0.3-0.4-0.7-0.5-1c-0.1-0.4-0.2-0.7-0.2-1.1c0-0.4,0.1-0.8,0.3-1.1c0.2-0.3,0.4-0.7,0.7-0.9
				c0.3-0.3,0.6-0.5,1-0.7C-622.6,1003.2-622.3,1003-621.8,1002.9z"/>
			<g>
				<ellipse class="st0" cx="-623" cy="1020.2" rx="12.7" ry="2.2"/>
				<path class="st0" d="M-613.9,1022.6c-2.4,0.4-5.7,0.7-9.1,0.7s-6.7-0.2-9.1-0.7l0,0c0.6,1.5,4.4,2.6,9.1,2.6
					S-614.4,1024.1-613.9,1022.6L-613.9,1022.6z"/>
			</g>
		</g>
	</g>
	<text transform="matrix(1 0 0 1 -713.5237 1065.4888)" class="st0 st1 st2">Clique para adicionar foto</text>
</g>
</svg>
