<?xml version="1.0" encoding="utf-8"?>
<!-- Generator: Adobe Illustrator 16.0.0, SVG Export Plug-In . SVG Version: 6.00 Build 0)  -->
<!DOCTYPE svg PUBLIC "-//W3C//DTD SVG 1.1//EN" "http://www.w3.org/Graphics/SVG/1.1/DTD/svg11.dtd">
<svg version="1.1" id="Layer_1" xmlns="http://www.w3.org/2000/svg" xmlns:xlink="http://www.w3.org/1999/xlink" x="0px" y="0px"
	 width="400px" height="400px" viewBox="0 0 400 400" enable-background="new 0 0 400 400" xml:space="preserve">
<g>
	<path fill="#46B649" d="M241.324,171.521H224.57c0-8.02-6.498-14.52-14.519-14.52h-20.104c-8.02,0-14.52,6.5-14.52,14.52h-16.753
		c-8.02,0-14.52,6.5-14.52,14.519v42.441c0,8.02,6.5,14.52,14.52,14.52h82.648c8.02,0,14.52-6.5,14.52-14.52V186.04
		C255.844,178.021,249.344,171.521,241.324,171.521z M200,232.947c-14.165,0-25.688-11.523-25.688-25.688
		c0-14.164,11.522-25.688,25.688-25.688c14.166,0,25.688,11.524,25.688,25.688C225.688,221.424,214.166,232.947,200,232.947z"/>
	<path fill="#46B649" d="M193.662,203.594c1.051,0,1.901-0.85,1.901-1.9c0-1.05-0.851-1.901-1.901-1.901
		c-1.049,0-1.9,0.851-1.9,1.901C191.762,202.744,192.613,203.594,193.662,203.594z M206.635,203.594c1.051,0,1.9-0.85,1.9-1.9
		c0-1.05-0.85-1.901-1.9-1.901c-1.05,0-1.9,0.851-1.9,1.901C204.734,202.744,205.585,203.594,206.635,203.594z M200.001,185.054
		c-12.193,0-22.114,9.921-22.114,22.114c0,12.193,9.921,22.115,22.114,22.115s22.112-9.922,22.112-22.115
		C222.114,194.974,212.195,185.054,200.001,185.054z M200.001,227.793c-11.372,0-20.625-9.252-20.625-20.625
		c0-11.372,9.253-20.625,20.625-20.625s20.623,9.253,20.623,20.625C220.625,218.541,211.373,227.793,200.001,227.793z
		 M211.859,210.154c-0.412,0-0.745,0.332-0.745,0.744c0,4.355-5.2,9.678-11.27,9.678c-6.067,0-11.267-5.322-11.267-9.678
		c0-0.412-0.333-0.744-0.745-0.744s-0.744,0.332-0.744,0.744c0,5.059,5.689,11.168,12.756,11.168
		c7.067,0,12.759-6.109,12.759-11.168C212.604,210.486,212.271,210.154,211.859,210.154z"/>
</g>
</svg>
