<?xml version="1.0" encoding="utf-8"?>
<!-- Generator: Adobe Illustrator 16.0.0, SVG Export Plug-In . SVG Version: 6.00 Build 0)  -->
<!DOCTYPE svg PUBLIC "-//W3C//DTD SVG 1.1//EN" "http://www.w3.org/Graphics/SVG/1.1/DTD/svg11.dtd">
<svg version="1.1" id="Layer_1" xmlns="http://www.w3.org/2000/svg" xmlns:xlink="http://www.w3.org/1999/xlink" x="0px" y="0px"
	 width="400px" height="400px" viewBox="0 0 400 400" enable-background="new 0 0 400 400" xml:space="preserve">
<g>
	<path fill="#46B649" d="M241.324,171.521H224.57c0-8.02-6.498-14.52-14.519-14.52h-20.104c-8.02,0-14.52,6.5-14.52,14.52h-16.753
		c-8.02,0-14.52,6.5-14.52,14.519v42.441c0,8.02,6.5,14.52,14.52,14.52h82.648c8.02,0,14.52-6.5,14.52-14.52V186.04
		C255.844,178.021,249.344,171.521,241.324,171.521z M200,232.947c-14.165,0-25.688-11.523-25.688-25.688
		c0-14.164,11.522-25.688,25.688-25.688c14.166,0,25.688,11.524,25.688,25.688C225.688,221.424,214.166,232.947,200,232.947z"/>
	<g>
		<path fill="#B0B7B0" d="M196.365,199.864c-0.46,0.504-0.81,1.014-1.008,1.517c-0.197,0.502-0.229,0.98-0.098,1.416
			c0.126,0.436,0.395,0.844,0.757,1.24c0.182,0.197,0.385,0.393,0.607,0.58c0.11,0.096,0.225,0.189,0.343,0.281l0.181,0.141
			l0.202,0.152c0.161,0.125,0.3,0.24,0.444,0.367c0.141,0.127,0.276,0.256,0.407,0.393c0.258,0.271,0.495,0.564,0.688,0.881
			c0.39,0.627,0.606,1.359,0.509,2.078c-0.094,0.717-0.481,1.379-1.029,1.887c-0.274,0.254-0.582,0.479-0.919,0.668
			c-0.336,0.188-0.693,0.348-1.083,0.451c0.425-0.521,0.751-1.041,0.947-1.553c0.197-0.512,0.256-1.004,0.159-1.455
			c-0.091-0.451-0.317-0.867-0.644-1.271c-0.324-0.4-0.756-0.791-1.222-1.154l-0.205-0.16c-0.074-0.057-0.148-0.115-0.222-0.176
			c-0.142-0.121-0.284-0.246-0.42-0.375c-0.27-0.262-0.521-0.541-0.733-0.844c-0.217-0.303-0.395-0.629-0.517-0.975
			c-0.121-0.346-0.184-0.709-0.165-1.072c0.021-0.365,0.116-0.725,0.286-1.053c0.167-0.33,0.405-0.627,0.682-0.885
			c0.281-0.258,0.599-0.479,0.944-0.66C195.602,200.103,195.971,199.954,196.365,199.864z"/>
		<path fill="#B0B7B0" d="M201.702,191.17c-0.703,0.77-1.237,1.549-1.54,2.318c-0.304,0.77-0.35,1.5-0.149,2.164
			c0.193,0.667,0.603,1.291,1.157,1.896c0.277,0.302,0.589,0.6,0.928,0.89c0.17,0.145,0.344,0.29,0.525,0.431l0.274,0.213
			l0.31,0.233c0.246,0.191,0.457,0.367,0.68,0.562c0.213,0.192,0.423,0.393,0.621,0.601c0.396,0.415,0.758,0.864,1.055,1.346
			c0.595,0.957,0.926,2.082,0.777,3.178c-0.145,1.096-0.737,2.107-1.574,2.885c-0.422,0.389-0.891,0.73-1.405,1.02
			c-0.513,0.287-1.062,0.533-1.657,0.691c0.649-0.799,1.148-1.59,1.449-2.375c0.303-0.781,0.391-1.535,0.242-2.223
			c-0.139-0.689-0.484-1.328-0.982-1.945c-0.495-0.613-1.155-1.211-1.868-1.766l-0.314-0.242c-0.113-0.089-0.227-0.178-0.338-0.271
			c-0.219-0.185-0.436-0.375-0.643-0.574c-0.412-0.398-0.795-0.825-1.123-1.289c-0.329-0.462-0.601-0.962-0.788-1.489
			c-0.186-0.528-0.281-1.086-0.252-1.642c0.03-0.556,0.175-1.105,0.437-1.607c0.256-0.505,0.62-0.958,1.043-1.354
			c0.43-0.394,0.916-0.731,1.443-1.009C200.535,191.535,201.098,191.305,201.702,191.17z"/>
		<g>
			<ellipse fill="#46B649" cx="199.999" cy="216.568" rx="18.613" ry="3.23"/>
			<path fill="#46B649" d="M213.381,220.121c-3.586,0.623-8.338,0.965-13.382,0.965c-5.043,0-9.795-0.342-13.381-0.965
				c-0.023-0.004-0.045-0.008-0.068-0.012c0.824,2.168,6.529,3.846,13.449,3.846c6.921,0,12.626-1.68,13.45-3.846
				C213.426,220.113,213.404,220.117,213.381,220.121z"/>
		</g>
	</g>
</g>
</svg>
