<?xml version="1.0" encoding="utf-8"?>
<!-- Generator: Adobe Illustrator 19.0.0, SVG Export Plug-In . SVG Version: 6.00 Build 0)  -->
<svg version="1.1" id="Camada_1" xmlns="http://www.w3.org/2000/svg" xmlns:xlink="http://www.w3.org/1999/xlink" x="0px" y="0px"
	 viewBox="0 0 2048 2048" style="enable-background:new 0 0 2048 2048;" xml:space="preserve">
<style type="text/css">
	.st0{fill:#FFCC3A;}
	.st1{fill:#FF8A00;}
	.st2{opacity:0.3;fill:#FFFFFF;}
	.st3{fill:#FFFFFF;}
	.st4{fill:#9FCC3E;}
	.st5{fill:#B1D64C;}
</style>
<g id="XMLID_34_">
	<g id="XMLID_35_">
		<path id="XMLID_36_" class="st0" d="M1024,1438.1c-317.6,0-576-258.4-576-576s258.4-576,576-576s576,258.4,576,576
			S1341.6,1438.1,1024,1438.1z M1024,337.1c-289.5,0-525,235.5-525,525c0,289.5,235.5,525,525,525c289.5,0,525-235.5,525-525
			C1549,572.6,1313.5,337.1,1024,337.1z"/>
	</g>
</g>
<g id="XMLID_27_">
	<g id="XMLID_31_">
		<path id="XMLID_12_" class="st1" d="M1834.4,257.5c0-136.2-94.6-246.6-168.3-246.6c-66.4,0-168.3,110.4-168.3,246.6
			c0,119.6,51.1,219.2,132.6,241.8c-0.7,80.2-3.9,528.6-18.4,647.7c-17,140.1-58.9,302.2,54.1,302.2c113,0,71.1-162.1,54.1-302.2
			c-14.5-119-17.7-567.5-18.4-647.7C1783.4,476.7,1834.5,377,1834.4,257.5z"/>
		<path id="XMLID_11_" class="st2" d="M1666.2,1449.1c0.6,0,1.1-0.1,1.7-0.1L1667.8,11c-0.5,0-1.1-0.1-1.6-0.1
			c-66.4,0-168.3,110.4-168.3,246.6c0,119.6,51.1,219.2,132.6,241.8c-0.7,80.2-3.9,528.6-18.4,647.7
			C1595.1,1287,1553.2,1449.1,1666.2,1449.1z"/>
	</g>
	<g id="XMLID_28_">
		<path id="XMLID_10_" class="st1" d="M446.4,57h-4.1c-9.1,0-16.5,7.4-16.5,16.5v323.5l-34.3,0l0-323.5c0-9.1-7.4-16.5-16.5-16.5
			l-4.1,0c-9.1,0-16.5,7.4-16.5,16.5v323.5l-33.1,0l0-323.5c0-9.1-7.4-16.5-16.5-16.5l-4.1,0c-9.1,0-16.5,7.4-16.5,16.5v323.5h-33.5
			V73.4c0-9.1-7.4-16.5-16.5-16.5H230c-9.1,0-16.5,7.4-16.5,16.5v323.5v90.7c0,54.6,38.5,100.6,89.6,112.4l-0.5,0
			c0,0-1.5,356.8-18.5,496.9c-17,140.1-58.9,359.9,54.1,359.9c113,0,71.1-219.8,54.1-359.9c-17-140.1-18.6-496.9-18.6-496.9l-0.4,0
			c51.1-11.8,89.6-57.8,89.6-112.4l0-90.7l0-323.5C462.9,64.4,455.5,57,446.4,57z"/>
		<path id="XMLID_9_" class="st2" d="M321.2,396.9l0-323.5c0-9.1-7.4-16.5-16.5-16.5l-4.1,0c-9.1,0-16.5,7.4-16.5,16.5v323.5h-33.5
			V73.4c0-9.1-7.4-16.5-16.5-16.5H230c-9.1,0-16.5,7.4-16.5,16.5v323.5v90.7c0,54.6,38.5,100.6,89.6,112.4l-0.5,0
			c0,0-1.5,356.8-18.5,496.9c-17,140.1-58.9,359.8,54,359.9l-1.3-1059.8H321.2z"/>
	</g>
</g>
<ellipse id="XMLID_1_" class="st3" cx="1024" cy="861.7" rx="525" ry="524.5"/>
<g id="XMLID_18_">
	<g id="XMLID_23_">
		<path id="XMLID_8_" class="st4" d="M1019,1087.5c0,0-87.3-417.5,400.9-446.5C1420,641,1480.2,1065.7,1019,1087.5z"/>
		<path id="XMLID_7_" class="st5" d="M1375.9,668c-41.5,30.4-80.5,64.8-117.3,101.9c-0.2-6.3,0.6-12.9,1.1-18.7
			c1.1-13.8,3.9-27.7,7.2-41.2c4.3-17.9-23.4-24.7-27.7-6.8c-5,20.8-17.1,66.8-4.6,91.6c-23.1,24.6-45.4,50.2-66.8,76.5
			c-1.6-14.6-2-29.4-2.4-44.1c-0.5-19.4-0.5-38.8,0-58.1c0.5-18.4-28.1-17.8-28.5,0.5c-0.6,25.9-0.4,51.9,0.6,77.7
			c0.6,13-0.4,37.4,6.1,54.2c-20.2,25.9-39.6,52.3-58.4,78.9c-5.4-30.6-0.5-67.4,1.3-96c1.1-18.4-27.4-17.7-28.5,0.5
			c-1.4,21.7-1.8,43.6-1.5,65.4c0.2,17.3-0.8,43,7.5,60.7c-9.2,13.5-18.3,27-27.3,40.5c-10.1,15.4,15,28.9,25,13.6
			c7.9-12,16-24,24.2-36c15.1,3.5,34-0.2,46.7-2.3c41.1-6.8,81.6-17.9,120.7-32.4c17.1-6.3,9.2-33.7-8.1-27.3
			c-14.2,5.2-107.2,37.8-142.1,37.2c19.8-28.3,40.3-56.5,61.8-84.1c21.8,5.2,53.2-3.1,72.3-5.5c24.8-3.1,49.5-6.8,74.1-10.8
			c18.1-3,9.8-30.3-8.1-27.3c-37.6,6.2-77.1,14.1-115.6,15c22.5-27.7,45.9-54.6,70.3-80.4c18,3,40.3-3.4,56.7-6.4
			c19.2-3.6,38.3-8.1,57.2-13c17.8-4.7,9.7-32-8.1-27.3c-24.8,6.5-50.1,12.7-75.7,16.1c32.6-32,66.8-61.8,102.9-88.3
			C1405.7,681.4,1390.7,657.1,1375.9,668z"/>
		<path id="XMLID_6_" class="st2" d="M1420,641C931.7,670,1019,1087.5,1019,1087.5c3.7-0.2,7.2-0.5,10.9-0.7l391-437.7
			C1420.4,643.9,1420,641,1420,641z"/>
	</g>
	<g id="XMLID_19_">
		<path id="XMLID_5_" class="st4" d="M1029,1087.5c0,0,87.3-417.5-400.9-446.5C628,641,567.8,1065.7,1029,1087.5z"/>
		<path id="XMLID_15_" class="st5" d="M672.1,668c41.5,30.4,80.5,64.8,117.3,101.9c0.2-6.3-0.6-12.9-1.1-18.7
			c-1.1-13.8-3.9-27.7-7.2-41.2c-4.3-17.9,23.4-24.7,27.7-6.8c5,20.8,17.1,66.8,4.6,91.6c23.1,24.6,45.4,50.2,66.8,76.5
			c1.6-14.6,2-29.4,2.4-44.1c0.5-19.4,0.5-38.8,0-58.1c-0.5-18.4,28.1-17.8,28.5,0.5c0.6,25.9,0.4,51.9-0.6,77.7
			c-0.6,13,0.4,37.4-6.1,54.2c20.2,25.9,39.6,52.3,58.4,78.9c5.4-30.6,0.5-67.4-1.3-96c-1.1-18.4,27.4-17.7,28.5,0.5
			c1.4,21.7,1.8,43.6,1.5,65.4c-0.2,17.3,0.8,43-7.5,60.7c9.2,13.5,18.4,27,27.3,40.5c10.1,15.4-15,28.9-25.1,13.6
			c-7.9-12-16-24-24.2-36c-15.1,3.5-34-0.2-46.7-2.3c-41.1-6.8-81.6-17.9-120.7-32.4c-17.1-6.3-9.2-33.7,8.1-27.3
			c14.2,5.2,107.2,37.8,142.1,37.2c-19.8-28.3-40.3-56.5-61.8-84.1c-21.8,5.2-53.2-3.1-72.3-5.5c-24.8-3.1-49.5-6.8-74.1-10.8
			c-18.1-3-9.8-30.3,8.1-27.3c37.6,6.2,77.1,14.1,115.6,15c-22.5-27.7-45.9-54.6-70.3-80.4c-18,3-40.3-3.4-56.7-6.4
			c-19.2-3.6-38.3-8.1-57.2-13c-17.8-4.7-9.7-32,8.1-27.3c24.8,6.5,50.1,12.7,75.7,16.1c-32.6-32-66.8-61.8-102.9-88.3
			C642.3,681.4,657.3,657.1,672.1,668z"/>
		<path id="XMLID_16_" class="st2" d="M628,641c488.3,29.1,400.9,446.5,400.9,446.5c-3.7-0.2-7.2-0.5-10.9-0.7l-391-437.7
			C627.6,643.9,628,641,628,641z"/>
	</g>
</g>
<g id="XMLID_3_">
	<path id="XMLID_4_" class="st3" d="M317,1904.2c5-14.2,10.2-31.1,15.7-50.6c5.5-19.6,11.2-40,17.1-61.3
		c5.9-21.3,11.8-42.6,17.6-63.8c5.8-21.3,11.5-40.7,17.1-58.4c1.6-5,3-10.2,4.2-15.5c1.2-5.4,2.8-10.1,4.7-14.1c1.9-4,4.5-7,8-8.9
		c3.4-1.9,8.3-2.1,14.5-0.6c3.8,2.3,6.1,5.4,7,9.2c0.9,3.8,1.1,7.8,0.5,11.8c-0.6,4-1.6,8.1-3.1,12.1c-1.4,4-2.6,7.4-3.5,10.1
		c-7.8,24.5-14.9,48.6-21.3,72.2c-6.4,23.6-12.7,47-18.8,70.2c-6.1,23.2-12.4,46.4-19,69.6c-6.6,23.2-13.9,46.7-22.1,70.5
		c-2.5,5.8-5,12.2-7.5,19.3c-2.5,7.1-5.3,13.9-8.4,20.4c-3.1,6.5-6.7,12.3-10.8,17.3c-4.1,5-8.6,8.4-13.6,10.4
		c-2.2,1.5-5.7,2.6-10.6,3.2c-4.9,0.6-10.1,0.9-15.7,0.9c-5.6,0-11.2-0.4-16.7-1.2c-5.5-0.8-9.8-1.7-12.9-2.9
		c-5.3-1.9-10.1-5.5-14.3-10.6c-4.2-5.2-8-11.2-11.3-18.1c-3.3-6.9-6.1-14.2-8.4-21.9c-2.3-7.7-4.5-15.1-6.3-22.4
		c-4.4-16.5-8.2-32.4-11.5-47.7c-3.3-15.3-6.5-30.7-9.6-46c-3.1-15.3-6.4-31-9.9-46.9c-3.4-15.9-7.5-32.7-12.2-50.3
		c-1.6-5.4-3.5-13.1-5.9-23.3c-2.3-10.2-4.5-20.9-6.6-32.2c-2-11.3-3.4-22.4-4.2-33.4c-0.8-10.9-0.1-20,2.1-27.3
		c1.6-5.4,4.2-9.4,8-12.1c3.8-2.7,8.1-4.6,13.1-5.8c5-1.2,10.4-1.7,16.2-1.7c5.8,0,11.5,0,17.1,0c1.9,0,6.4-0.2,13.6-0.6
		c7.2-0.4,14.9-0.2,23,0.6c8.1,0.8,15.6,2.7,22.5,5.8c6.9,3.1,11.1,8.1,12.7,15c3.8,18.4,7.3,38.2,10.8,59.5
		c3.4,21.3,6.7,43.1,9.9,65.6c3.1,22.4,6,44.9,8.7,67.3c2.7,22.4,5.1,43.8,7.3,64.1c0.6,5.8,1.6,9.4,2.8,10.9c1.2,1.5,2.6,1.9,4,1.2
		c1.4-0.8,2.7-2.1,3.8-4C316,1907.5,316.7,1905.8,317,1904.2z"/>
	<path id="XMLID_20_" class="st3" d="M568.1,1664.9c0,10.4-0.1,22.6-0.2,36.8c-0.2,14.2-0.2,29-0.2,44.6c0,15.5,0.2,31.1,0.5,46.6
		c0.3,15.5,0.9,29.8,1.9,42.9h45c8.4,0,15.2,0.1,20.2,0.3c5,0.2,8.9,1.1,11.7,2.6c2.8,1.5,4.7,3.8,5.6,6.9c0.9,3.1,1.4,7.5,1.4,13.2
		s-3.1,9.7-9.4,11.8c-6.3,2.1-13.9,3.3-23,3.5c-9.1,0.2-18.5,0.2-28.4,0c-9.9-0.2-18.2,0.5-25.1,2v107c4.4,0.8,10.1,1.1,17.1,0.9
		c7-0.2,14.6-0.4,22.8-0.6c8.1-0.2,16.3-0.1,24.4,0.3c8.1,0.4,15.5,1.3,22.1,2.9c6.6,1.5,12,3.8,16.2,6.9c4.2,3.1,6.5,7.5,6.8,13.2
		c0.3,6.9-1.5,12-5.4,15.2c-3.9,3.3-9.2,5.5-16,6.6c-6.7,1.2-14.5,1.6-23.2,1.4c-8.8-0.2-17.8-0.3-27.2-0.3
		c-10.3,0-21.3,0.1-33.1,0.3c-11.7,0.2-23.5,0.2-35.2,0c-11.7-0.2-23-0.9-33.8-2c-10.8-1.2-20.4-3.2-28.9-6
		c-8.4-2.9-15.2-6.8-20.2-11.8c-5-5-7.7-11.3-8-19c-0.9-26.5-1.8-51.3-2.6-74.5c-0.8-23.2-1.5-46.1-2.1-68.7
		c-0.6-22.6-1.1-45.4-1.4-68.4c-0.3-23-0.5-47.5-0.5-73.6c0-5.8,0-11.8,0-18.1c0-6.3,0.2-12.4,0.5-18.1c0.3-5.8,0.8-11,1.4-15.8
		c0.6-4.8,1.6-8.7,2.8-11.8c5-8.4,13.5-13.5,25.6-15.2c12-1.7,25.9-2.4,41.5-2c5.9,0,13.7,0.1,23.2,0.3c9.5,0.2,19.5,0.4,30,0.6
		c10.5,0.2,20.5,0.4,30,0.6c9.5,0.2,17.3,0.5,23.2,0.9c6.9,0.4,13.8,0.5,20.6,0.3c6.9-0.2,12.9,0.3,18.1,1.4
		c5.2,1.2,8.9,3.6,11.3,7.2c2.3,3.6,2.6,9.5,0.7,17.5c-0.9,3.8-3.6,6.6-8,8.3c-4.4,1.7-9.3,2.8-14.8,3.2c-5.5,0.4-11,0.4-16.7,0
		c-5.6-0.4-10.3-0.6-14.1-0.6c-7.2,0-12.8,0-16.9,0c-4.1,0-7.6,0.1-10.6,0.3c-3,0.2-5.9,0.3-8.7,0.3S572.7,1664.9,568.1,1664.9z"/>
	<path id="XMLID_22_" class="st3" d="M887.8,1881.8c-4.1,0.8-7.3-0.7-9.6-4.3c-2.3-3.6-3.5-7.6-3.5-11.8c0-2.7,0.8-5.9,2.3-9.8
		c1.6-3.8,4.1-5.6,7.5-5.2c19.4-1.2,34.6-0.9,45.5,0.9c10.9,1.7,19.2,5.5,24.6,11.2c5.5,5.8,9,13.9,10.6,24.4
		c1.6,10.6,2.7,24.1,3.3,40.6c0.6,10.7,0.4,20.2-0.7,28.5c-1.1,8.2-3.8,18.5-8.2,30.8c-3.1,8.4-8.4,15.8-15.7,22.1
		c-7.4,6.3-16,11.6-26,15.8c-10,4.2-21,7.3-32.8,9.2c-11.9,1.9-23.8,2.8-35.7,2.6c-11.9-0.2-23.4-1.5-34.5-4
		c-11.1-2.5-20.9-5.8-29.3-10.1c-15.6-8.1-29.9-18.6-42.7-31.6c-12.8-13-23.8-28.1-32.8-45.1c-9.1-17.1-16.2-36-21.3-56.9
		c-5.2-20.9-7.7-43-7.7-66.4c0-39.5,5.7-73.1,17.1-100.9c11.4-27.8,27-49.7,46.7-65.6c19.7-15.9,42.8-26,69.2-30.2
		c26.4-4.2,54.5-2.5,84.2,5.2c3.8,1.2,8.1,3.2,13.1,6c5,2.9,10.1,6.2,15.2,10.1c5.2,3.8,10,7.7,14.5,11.5c4.5,3.8,8.2,7.3,11,10.4
		c0.6,0.8,1.8,2.1,3.5,4c1.7,1.9,3.2,4.3,4.5,7.2c1.2,2.9,1.9,6,1.9,9.5s-1.1,6.9-3.3,10.4c-0.6,2.7-1.9,4.5-3.8,5.5
		c-1.9,1-4,1.2-6.3,0.9c-2.3-0.4-4.6-1.2-6.8-2.6c-2.2-1.3-3.9-3-5.2-4.9c-3.8-5.4-8.1-10-12.9-13.8c-4.9-3.8-9.9-6.9-15.2-9.2
		c-5.3-2.3-10.6-4.1-15.7-5.5c-5.2-1.3-9.9-2-14.3-2c-18.8-0.8-33.7,2.9-44.8,10.9c-11.1,8.1-16.7,20.9-16.7,38.5
		c-1.3,6.1-1.9,15.2-1.9,27.3c0,12.1,0.2,25,0.7,38.8c0.5,13.8,1.1,27.5,1.9,41.1c0.8,13.6,1.2,24.6,1.2,33.1
		c0,11.9,0.3,25.3,0.9,40.3c0.6,15,1.9,29.2,4,42.9c2,13.6,5.1,25.3,9.1,35.1c4.1,9.8,9.9,15.2,17.4,16.4
		c13.1,1.9,26.3,1.6,39.6-0.9c13.3-2.5,25.6-10.4,36.8-23.9c5-6.1,7.9-12.7,8.7-19.6c0.8-6.9,1-15.3,0.7-25.3
		c-0.6-13-2.1-22.2-4.5-27.6c-2.3-5.4-5.6-8.8-9.6-10.4c-4.1-1.5-8.9-2.1-14.5-1.7C901.9,1883.9,895.3,1883.3,887.8,1881.8z"/>
	<path id="XMLID_25_" class="st3" d="M1113.2,1613.2c24.4-1.9,45.7-0.9,63.8,3.2c18.1,4,33.9,11.2,47.2,21.6
		c13.3,10.4,24.4,24.1,33.3,41.1c8.9,17.1,16.2,37.9,21.8,62.4c2.2,10.4,3.9,19.8,5.2,28.5c1.2,8.6,2,18.1,2.3,28.5
		c0.3,10.4,0.2,22.1-0.2,35.4c-0.5,13.2-1.3,29.2-2.6,48c-2.5,24.2-8.8,46.5-18.8,67c-10,20.5-22.8,37.9-38.2,52.1
		c-15.5,14.2-33,24.4-52.5,30.8c-19.6,6.3-40,7.2-61.2,2.6c-21-4.2-40.2-13.7-57.7-28.5c-17.5-14.8-32.4-33.8-44.6-57.2
		c-7.5-13-13.3-28.6-17.4-46.6c-4.1-18-6.6-36.8-7.7-56.4c-1.1-19.6-0.7-39,1.2-58.4c1.9-19.4,5.2-37.1,9.9-53.2
		c5-15,11.5-29.3,19.5-43.1c8-13.8,17-26.3,27.2-37.4c10.2-11.1,21.1-20.2,32.8-27.3C1088.1,1619,1100.4,1614.7,1113.2,1613.2z
		 M1247.4,1741.4c-2.2-9.6-6.1-20.5-11.7-32.8c-5.6-12.3-11.6-22.8-17.8-31.6c-5-5.8-12.2-10.9-21.6-15.5
		c-9.4-4.6-18.8-7.8-28.4-9.5c-9.5-1.7-18.1-1.6-25.6,0.3c-7.5,1.9-11.9,6.5-13.1,13.8c-1.3,10-1.9,22.4-1.9,37.4
		c0,15,0.2,31.1,0.7,48.3c0.5,17.3,0.9,34.9,1.4,52.9c0.5,18,0.5,35.1,0.2,51.2c-0.3,8.8-0.6,19.5-0.9,31.9
		c-0.3,12.5,0.2,24.5,1.4,36.2c1.2,11.7,3.6,22.1,7,31.3c3.4,9.2,8.8,15,16,17.3c14.4,5,27.5,5.2,39.4,0.6
		c11.9-4.6,22.2-12.4,31-23.3c8.8-10.9,16-24.5,21.6-40.8c5.6-16.3,9.5-33.8,11.5-52.6c2-18.8,2.3-38.1,0.9-58.1
		C1256.1,1778.4,1252.7,1759.5,1247.4,1741.4z"/>
	<path id="XMLID_30_" class="st3" d="M1431.9,1613.2c24.4-1.9,45.7-0.9,63.8,3.2c18.1,4,33.9,11.2,47.2,21.6
		c13.3,10.4,24.4,24.1,33.3,41.1c8.9,17.1,16.2,37.9,21.8,62.4c2.2,10.4,3.9,19.8,5.2,28.5c1.2,8.6,2,18.1,2.3,28.5
		c0.3,10.4,0.2,22.1-0.2,35.4c-0.5,13.2-1.3,29.2-2.6,48c-2.5,24.2-8.8,46.5-18.8,67c-10,20.5-22.8,37.9-38.2,52.1
		c-15.5,14.2-33,24.4-52.5,30.8c-19.6,6.3-40,7.2-61.2,2.6c-21-4.2-40.2-13.7-57.7-28.5c-17.5-14.8-32.4-33.8-44.6-57.2
		c-7.5-13-13.3-28.6-17.4-46.6c-4.1-18-6.6-36.8-7.7-56.4c-1.1-19.6-0.7-39,1.2-58.4c1.9-19.4,5.2-37.1,9.9-53.2
		c5-15,11.5-29.3,19.5-43.1c8-13.8,17-26.3,27.2-37.4c10.2-11.1,21.1-20.2,32.8-27.3C1406.8,1619,1419.1,1614.7,1431.9,1613.2z
		 M1566.1,1741.4c-2.2-9.6-6.1-20.5-11.7-32.8c-5.6-12.3-11.6-22.8-17.8-31.6c-5-5.8-12.2-10.9-21.6-15.5
		c-9.4-4.6-18.8-7.8-28.4-9.5c-9.5-1.7-18.1-1.6-25.6,0.3c-7.5,1.9-11.9,6.5-13.1,13.8c-1.3,10-1.9,22.4-1.9,37.4
		c0,15,0.2,31.1,0.7,48.3c0.5,17.3,0.9,34.9,1.4,52.9c0.5,18,0.5,35.1,0.2,51.2c-0.3,8.8-0.6,19.5-0.9,31.9
		c-0.3,12.5,0.2,24.5,1.4,36.2c1.2,11.7,3.6,22.1,7,31.3c3.4,9.2,8.8,15,16,17.3c14.4,5,27.5,5.2,39.4,0.6
		c11.9-4.6,22.2-12.4,31-23.3c8.8-10.9,16-24.5,21.6-40.8c5.6-16.3,9.5-33.8,11.5-52.6c2-18.8,2.3-38.1,0.9-58.1
		C1574.8,1778.4,1571.4,1759.5,1566.1,1741.4z"/>
	<path id="XMLID_37_" class="st3" d="M1635.3,1995.1c-2.5-26.5-4.4-49.8-5.6-70.2c-1.3-20.3-2.2-40.5-2.8-60.7
		c-0.6-20.1-1-41.4-1.2-63.8c-0.2-22.4-0.2-49-0.2-79.7c0-6.1-0.2-13.2-0.7-21.3c-0.5-8.1-0.7-15.9-0.7-23.6c0-7.7,0.4-14.7,1.2-21
		c0.8-6.3,2.4-11,4.9-14.1c2.8-3.1,6.3-5.4,10.6-6.9c4.2-1.5,8.8-2.7,13.8-3.5c5-0.8,10.2-1.2,15.5-1.4c5.3-0.2,10.6-0.3,16-0.3
		c18.8-1.5,36.7-1.9,53.7-1.2c17,0.8,32.8,2.7,47.2,5.8c14.4,3.1,27.1,7.3,38.2,12.7c11.1,5.4,19.8,11.9,26,19.6
		c15,18.4,27.3,38.2,36.8,59.5c9.5,21.3,15.6,45.7,18.1,73.3c2.5,18.4,3.4,39.2,2.6,62.4c-0.8,23.2-4.9,47.3-12.4,72.2
		c-3.8,12.3-9.1,23.1-16.2,32.5c-7,9.4-14.9,17.5-23.7,24.4c-8.8,6.9-18,12.8-27.7,17.5c-9.7,4.8-18.9,8.7-27.7,11.8
		c-12.5,3.1-26.1,4.8-40.8,5.2c-14.7,0.4-29.6,0.6-44.6,0.6c-6.3,0-13.7-0.2-22.3-0.6c-8.6-0.4-17-1.4-25.1-3.2
		c-8.1-1.7-15.3-4.6-21.6-8.6C1640.3,2008.6,1636.5,2002.8,1635.3,1995.1z M1846.4,1952c10.6-12.3,18.5-28.4,23.7-48.3
		c5.2-19.9,7.6-40.9,7.3-63c-0.3-22-3.1-43.9-8.4-65.6c-5.3-21.7-12.9-40.6-22.8-56.7c-9.9-16.1-22-28.2-36.4-36.2
		c-14.4-8.1-30.8-9.6-49.3-4.6c-1.3,1.5-2.2,5.1-2.8,10.6c-0.6,5.6-1.1,11.8-1.4,18.7c-0.3,6.9-0.5,13.8-0.5,20.7s0,12.7,0,17.3
		c0,43.3,0.8,84.9,2.3,124.8c1.6,39.9,2.3,75.3,2.3,106.4c8.8,3.1,17.2,4.3,25.3,3.7c8.1-0.6,15.8-2.1,23-4.6
		c7.2-2.5,13.9-5.8,20.2-10.1C1835.3,1961,1841.1,1956.6,1846.4,1952z"/>
</g>
</svg>
